<svg id="visual" viewBox="0 0 900 100" width="900" height="100" xmlns="http://www.w3.org/2000/svg" xmlns:xlink="http://www.w3.org/1999/xlink" version="1.1"><rect x="0" y="0" width="900" height="100" fill="#000000"></rect><path d="M0 55L13.7 56.2C27.3 57.3 54.7 59.7 82 57.8C109.3 56 136.7 50 163.8 51.7C191 53.3 218 62.7 245.2 68C272.3 73.3 299.7 74.7 327 75.3C354.3 76 381.7 76 409 75.3C436.3 74.7 463.7 73.3 491 67C518.3 60.7 545.7 49.3 573 44.7C600.3 40 627.7 42 654.8 45.8C682 49.7 709 55.3 736.2 61.5C763.3 67.7 790.7 74.3 818 70.3C845.3 66.3 872.7 51.7 886.3 44.3L900 37L900 0L886.3 0C872.7 0 845.3 0 818 0C790.7 0 763.3 0 736.2 0C709 0 682 0 654.8 0C627.7 0 600.3 0 573 0C545.7 0 518.3 0 491 0C463.7 0 436.3 0 409 0C381.7 0 354.3 0 327 0C299.7 0 272.3 0 245.2 0C218 0 191 0 163.8 0C136.7 0 109.3 0 82 0C54.7 0 27.3 0 13.7 0L0 0Z" fill="#5800ff"></path><path d="M0 30L13.7 32.7C27.3 35.3 54.7 40.7 82 43.5C109.3 46.3 136.7 46.7 163.8 48.3C191 50 218 53 245.2 51.8C272.3 50.7 299.7 45.3 327 44C354.3 42.7 381.7 45.3 409 44.7C436.3 44 463.7 40 491 39.2C518.3 38.3 545.7 40.7 573 45.5C600.3 50.3 627.7 57.7 654.8 57C682 56.3 709 47.7 736.2 43C763.3 38.3 790.7 37.7 818 38.2C845.3 38.7 872.7 40.3 886.3 41.2L900 42L900 0L886.3 0C872.7 0 845.3 0 818 0C790.7 0 763.3 0 736.2 0C709 0 682 0 654.8 0C627.7 0 600.3 0 573 0C545.7 0 518.3 0 491 0C463.7 0 436.3 0 409 0C381.7 0 354.3 0 327 0C299.7 0 272.3 0 245.2 0C218 0 191 0 163.8 0C136.7 0 109.3 0 82 0C54.7 0 27.3 0 13.7 0L0 0Z" fill="#e700a5"></path><path d="M0 20L13.7 20.5C27.3 21 54.7 22 82 23.8C109.3 25.7 136.7 28.3 163.8 28.3C191 28.3 218 25.7 245.2 28.2C272.3 30.7 299.7 38.3 327 43.2C354.3 48 381.7 50 409 49.3C436.3 48.7 463.7 45.3 491 45.5C518.3 45.7 545.7 49.3 573 51C600.3 52.7 627.7 52.3 654.8 48.8C682 45.3 709 38.7 736.2 33.7C763.3 28.7 790.7 25.3 818 24C845.3 22.7 872.7 23.3 886.3 23.7L900 24L900 0L886.3 0C872.7 0 845.3 0 818 0C790.7 0 763.3 0 736.2 0C709 0 682 0 654.8 0C627.7 0 600.3 0 573 0C545.7 0 518.3 0 491 0C463.7 0 436.3 0 409 0C381.7 0 354.3 0 327 0C299.7 0 272.3 0 245.2 0C218 0 191 0 163.8 0C136.7 0 109.3 0 82 0C54.7 0 27.3 0 13.7 0L0 0Z" fill="#ff0060"></path><path d="M0 15L13.7 17.5C27.3 20 54.7 25 82 25.7C109.3 26.3 136.7 22.7 163.8 21.7C191 20.7 218 22.3 245.2 24.2C272.3 26 299.7 28 327 26.3C354.3 24.7 381.7 19.3 409 19C436.3 18.7 463.7 23.3 491 26.3C518.3 29.3 545.7 30.7 573 29.7C600.3 28.7 627.7 25.3 654.8 24.2C682 23 709 24 736.2 23.2C763.3 22.3 790.7 19.7 818 21.5C845.3 23.3 872.7 29.7 886.3 32.8L900 36L900 0L886.3 0C872.7 0 845.3 0 818 0C790.7 0 763.3 0 736.2 0C709 0 682 0 654.8 0C627.7 0 600.3 0 573 0C545.7 0 518.3 0 491 0C463.7 0 436.3 0 409 0C381.7 0 354.3 0 327 0C299.7 0 272.3 0 245.2 0C218 0 191 0 163.8 0C136.7 0 109.3 0 82 0C54.7 0 27.3 0 13.7 0L0 0Z" fill="#ff782d"></path><path d="M0 18L13.7 16.3C27.3 14.7 54.7 11.3 82 10C109.3 8.7 136.7 9.3 163.8 10.2C191 11 218 12 245.2 11.2C272.3 10.3 299.7 7.7 327 7.5C354.3 7.3 381.7 9.7 409 10.5C436.3 11.3 463.7 10.7 491 10.2C518.3 9.7 545.7 9.3 573 10.7C600.3 12 627.7 15 654.8 17.2C682 19.3 709 20.7 736.2 21.3C763.3 22 790.7 22 818 19.8C845.3 17.7 872.7 13.3 886.3 11.2L900 9L900 0L886.3 0C872.7 0 845.3 0 818 0C790.7 0 763.3 0 736.2 0C709 0 682 0 654.8 0C627.7 0 600.3 0 573 0C545.7 0 518.3 0 491 0C463.7 0 436.3 0 409 0C381.7 0 354.3 0 327 0C299.7 0 272.3 0 245.2 0C218 0 191 0 163.8 0C136.7 0 109.3 0 82 0C54.7 0 27.3 0 13.7 0L0 0Z" fill="#ffc600"></path></svg>