<svg id="visual" viewBox="0 0 900 100" width="900" height="100" xmlns="http://www.w3.org/2000/svg" xmlns:xlink="http://www.w3.org/1999/xlink" version="1.1"><rect x="0" y="0" width="900" height="100" fill="#001220"></rect><path d="M0 72L13.7 73.5C27.3 75 54.7 78 82 77.3C109.3 76.7 136.7 72.3 163.8 68.7C191 65 218 62 245.2 62C272.3 62 299.7 65 327 68.5C354.3 72 381.7 76 409 78.7C436.3 81.3 463.7 82.7 491 84.2C518.3 85.7 545.7 87.3 573 82.5C600.3 77.7 627.7 66.3 654.8 63.2C682 60 709 65 736.2 65.7C763.3 66.3 790.7 62.7 818 62.8C845.3 63 872.7 67 886.3 69L900 71L900 0L886.3 0C872.7 0 845.3 0 818 0C790.7 0 763.3 0 736.2 0C709 0 682 0 654.8 0C627.7 0 600.3 0 573 0C545.7 0 518.3 0 491 0C463.7 0 436.3 0 409 0C381.7 0 354.3 0 327 0C299.7 0 272.3 0 245.2 0C218 0 191 0 163.8 0C136.7 0 109.3 0 82 0C54.7 0 27.3 0 13.7 0L0 0Z" fill="#5800ff"></path><path d="M0 54L13.7 51.5C27.3 49 54.7 44 82 46.5C109.3 49 136.7 59 163.8 58.3C191 57.7 218 46.3 245.2 42.7C272.3 39 299.7 43 327 44.3C354.3 45.7 381.7 44.3 409 41.8C436.3 39.3 463.7 35.7 491 35.3C518.3 35 545.7 38 573 44C600.3 50 627.7 59 654.8 59C682 59 709 50 736.2 47.2C763.3 44.3 790.7 47.7 818 51.5C845.3 55.3 872.7 59.7 886.3 61.8L900 64L900 0L886.3 0C872.7 0 845.3 0 818 0C790.7 0 763.3 0 736.2 0C709 0 682 0 654.8 0C627.7 0 600.3 0 573 0C545.7 0 518.3 0 491 0C463.7 0 436.3 0 409 0C381.7 0 354.3 0 327 0C299.7 0 272.3 0 245.2 0C218 0 191 0 163.8 0C136.7 0 109.3 0 82 0C54.7 0 27.3 0 13.7 0L0 0Z" fill="#f6008a"></path><path d="M0 32L13.7 33.2C27.3 34.3 54.7 36.7 82 37.2C109.3 37.7 136.7 36.3 163.8 33.3C191 30.3 218 25.7 245.2 28.2C272.3 30.7 299.7 40.3 327 43.8C354.3 47.3 381.7 44.7 409 40C436.3 35.3 463.7 28.7 491 30C518.3 31.3 545.7 40.7 573 41C600.3 41.3 627.7 32.7 654.8 29.3C682 26 709 28 736.2 31.7C763.3 35.3 790.7 40.7 818 43.5C845.3 46.3 872.7 46.7 886.3 46.8L900 47L900 0L886.3 0C872.7 0 845.3 0 818 0C790.7 0 763.3 0 736.2 0C709 0 682 0 654.8 0C627.7 0 600.3 0 573 0C545.7 0 518.3 0 491 0C463.7 0 436.3 0 409 0C381.7 0 354.3 0 327 0C299.7 0 272.3 0 245.2 0C218 0 191 0 163.8 0C136.7 0 109.3 0 82 0C54.7 0 27.3 0 13.7 0L0 0Z" fill="#ff5a3f"></path><path d="M0 26L13.7 23.5C27.3 21 54.7 16 82 16C109.3 16 136.7 21 163.8 24.7C191 28.3 218 30.7 245.2 30C272.3 29.3 299.7 25.7 327 23.7C354.3 21.7 381.7 21.3 409 23.3C436.3 25.3 463.7 29.7 491 30.7C518.3 31.7 545.7 29.3 573 27.7C600.3 26 627.7 25 654.8 22.5C682 20 709 16 736.2 14.7C763.3 13.3 790.7 14.7 818 16.3C845.3 18 872.7 20 886.3 21L900 22L900 0L886.3 0C872.7 0 845.3 0 818 0C790.7 0 763.3 0 736.2 0C709 0 682 0 654.8 0C627.7 0 600.3 0 573 0C545.7 0 518.3 0 491 0C463.7 0 436.3 0 409 0C381.7 0 354.3 0 327 0C299.7 0 272.3 0 245.2 0C218 0 191 0 163.8 0C136.7 0 109.3 0 82 0C54.7 0 27.3 0 13.7 0L0 0Z" fill="#ffc600"></path></svg>