<svg id="visual" viewBox="0 0 900 600" width="900" height="600" xmlns="http://www.w3.org/2000/svg" xmlns:xlink="http://www.w3.org/1999/xlink" version="1.1"><rect x="0" y="0" width="900" height="600" fill="#001220"></rect><path d="M0 110L18.8 109.7C37.7 109.3 75.3 108.7 112.8 116.5C150.3 124.3 187.7 140.7 225.2 140.7C262.7 140.7 300.3 124.3 337.8 124.5C375.3 124.7 412.7 141.3 450.2 153.8C487.7 166.3 525.3 174.7 562.8 169.8C600.3 165 637.7 147 675.2 147.8C712.7 148.7 750.3 168.3 787.8 178.2C825.3 188 862.7 188 881.3 188L900 188L900 0L881.3 0C862.7 0 825.3 0 787.8 0C750.3 0 712.7 0 675.2 0C637.7 0 600.3 0 562.8 0C525.3 0 487.7 0 450.2 0C412.7 0 375.3 0 337.8 0C300.3 0 262.7 0 225.2 0C187.7 0 150.3 0 112.8 0C75.3 0 37.7 0 18.8 0L0 0Z" fill="#ffc600"></path><path d="M0 90L18.8 99C37.7 108 75.3 126 112.8 124.7C150.3 123.3 187.7 102.7 225.2 104.2C262.7 105.7 300.3 129.3 337.8 132.8C375.3 136.3 412.7 119.7 450.2 120C487.7 120.3 525.3 137.7 562.8 138.2C600.3 138.7 637.7 122.3 675.2 114C712.7 105.7 750.3 105.3 787.8 105.2C825.3 105 862.7 105 881.3 105L900 105L900 0L881.3 0C862.7 0 825.3 0 787.8 0C750.3 0 712.7 0 675.2 0C637.7 0 600.3 0 562.8 0C525.3 0 487.7 0 450.2 0C412.7 0 375.3 0 337.8 0C300.3 0 262.7 0 225.2 0C187.7 0 150.3 0 112.8 0C75.3 0 37.7 0 18.8 0L0 0Z" fill="#ff5a3f"></path><path d="M0 81L18.8 86.7C37.7 92.3 75.3 103.7 112.8 103.8C150.3 104 187.7 93 225.2 93C262.7 93 300.3 104 337.8 99C375.3 94 412.7 73 450.2 70.3C487.7 67.7 525.3 83.3 562.8 93.5C600.3 103.7 637.7 108.3 675.2 109C712.7 109.7 750.3 106.3 787.8 104.8C825.3 103.3 862.7 103.7 881.3 103.8L900 104L900 0L881.3 0C862.7 0 825.3 0 787.8 0C750.3 0 712.7 0 675.2 0C637.7 0 600.3 0 562.8 0C525.3 0 487.7 0 450.2 0C412.7 0 375.3 0 337.8 0C300.3 0 262.7 0 225.2 0C187.7 0 150.3 0 112.8 0C75.3 0 37.7 0 18.8 0L0 0Z" fill="#f6008a"></path><path d="M0 38L18.8 40.8C37.7 43.7 75.3 49.3 112.8 49.2C150.3 49 187.7 43 225.2 40.3C262.7 37.7 300.3 38.3 337.8 39.2C375.3 40 412.7 41 450.2 45.5C487.7 50 525.3 58 562.8 54.8C600.3 51.7 637.7 37.3 675.2 34.5C712.7 31.7 750.3 40.3 787.8 47C825.3 53.7 862.7 58.3 881.3 60.7L900 63L900 0L881.3 0C862.7 0 825.3 0 787.8 0C750.3 0 712.7 0 675.2 0C637.7 0 600.3 0 562.8 0C525.3 0 487.7 0 450.2 0C412.7 0 375.3 0 337.8 0C300.3 0 262.7 0 225.2 0C187.7 0 150.3 0 112.8 0C75.3 0 37.7 0 18.8 0L0 0Z" fill="#5800ff"></path></svg>