<svg id="visual" viewBox="0 0 900 600" width="900" height="600" xmlns="http://www.w3.org/2000/svg" xmlns:xlink="http://www.w3.org/1999/xlink" version="1.1"><path d="M0 202L9.3 174.3C18.7 146.7 37.3 91.3 56.2 74.2C75 57 94 78 112.8 102C131.7 126 150.3 153 169 168.3C187.7 183.7 206.3 187.3 225 174.8C243.7 162.3 262.3 133.7 281.2 105.8C300 78 319 51 337.8 51.5C356.7 52 375.3 80 394 84C412.7 88 431.3 68 450 61C468.7 54 487.3 60 506.2 71.7C525 83.3 544 100.7 562.8 109C581.7 117.3 600.3 116.7 619 101.2C637.7 85.7 656.3 55.3 675 67.8C693.7 80.3 712.3 135.7 731.2 149.7C750 163.7 769 136.3 787.8 130.5C806.7 124.7 825.3 140.3 844 134.5C862.7 128.7 881.3 101.3 890.7 87.7L900 74L900 0L890.7 0C881.3 0 862.7 0 844 0C825.3 0 806.7 0 787.8 0C769 0 750 0 731.2 0C712.3 0 693.7 0 675 0C656.3 0 637.7 0 619 0C600.3 0 581.7 0 562.8 0C544 0 525 0 506.2 0C487.3 0 468.7 0 450 0C431.3 0 412.7 0 394 0C375.3 0 356.7 0 337.8 0C319 0 300 0 281.2 0C262.3 0 243.7 0 225 0C206.3 0 187.7 0 169 0C150.3 0 131.7 0 112.8 0C94 0 75 0 56.2 0C37.3 0 18.7 0 9.3 0L0 0Z" fill="#0066FF" stroke-linecap="round" stroke-linejoin="miter"></path></svg>